<svg width="24" height="24" viewBox="0 0 24 24" fill="none" xmlns="http://www.w3.org/2000/svg">
<path d="M14 8.80012C14 8.70819 14.0335 8.6137 14.1006 8.51665C14.1677 8.41961 14.2425 8.35577 14.325 8.32512C14.825 8.14179 15.3361 8.00012 15.8584 7.90012C16.3806 7.80012 16.9299 7.75012 17.5062 7.75012C17.8664 7.75012 18.2221 7.77096 18.5732 7.81262C18.9244 7.85429 19.2667 7.91679 19.6 8.00012C19.7 8.03346 19.7917 8.09508 19.875 8.185C19.9583 8.27493 20 8.3761 20 8.4885C20 8.67958 19.9375 8.82512 19.8125 8.92512C19.6875 9.02512 19.5333 9.05012 19.35 9.00012C19.07 8.91679 18.775 8.85429 18.465 8.81262C18.155 8.77096 17.8333 8.75012 17.5 8.75012C17.0167 8.75012 16.55 8.79596 16.1 8.88762C15.65 8.97929 15.2083 9.11679 14.775 9.30012C14.5417 9.38346 14.3542 9.37929 14.2125 9.28762C14.0708 9.19596 14 9.03346 14 8.80012ZM14 14.3001C14 14.2034 14.0335 14.1039 14.1006 14.0017C14.1677 13.8996 14.2425 13.8324 14.325 13.8001C14.825 13.6168 15.3361 13.4793 15.8584 13.3876C16.3806 13.296 16.9299 13.2501 17.5062 13.2501C17.8664 13.2501 18.2221 13.271 18.5732 13.3126C18.9244 13.3543 19.2667 13.4168 19.6 13.5001C19.7 13.5335 19.7917 13.5951 19.875 13.685C19.9583 13.7749 20 13.8761 20 13.9885C20 14.1796 19.9375 14.3251 19.8125 14.4251C19.6875 14.5251 19.5333 14.5501 19.35 14.5001C19.07 14.4168 18.775 14.3543 18.465 14.3126C18.155 14.271 17.8333 14.2501 17.5 14.2501C17.0167 14.2501 16.55 14.2918 16.1 14.3751C15.65 14.4585 15.2083 14.5918 14.775 14.7751C14.5417 14.8585 14.3542 14.8585 14.2125 14.7751C14.0708 14.6918 14 14.5335 14 14.3001ZM14 11.5501C14 11.4582 14.0335 11.3637 14.1006 11.2666C14.1677 11.1696 14.2425 11.1058 14.325 11.0751C14.825 10.8918 15.3361 10.7501 15.8584 10.6501C16.3806 10.5501 16.9299 10.5001 17.5062 10.5001C17.8664 10.5001 18.2221 10.521 18.5732 10.5626C18.9244 10.6043 19.2667 10.6668 19.6 10.7501C19.7 10.7835 19.7917 10.8451 19.875 10.935C19.9583 11.0249 20 11.1261 20 11.2385C20 11.4296 19.9375 11.5751 19.8125 11.6751C19.6875 11.7751 19.5333 11.8001 19.35 11.7501C19.07 11.6668 18.775 11.6043 18.465 11.5626C18.155 11.521 17.8333 11.5001 17.5 11.5001C17.0167 11.5001 16.55 11.546 16.1 11.6376C15.65 11.7293 15.2083 11.8668 14.775 12.0501C14.5417 12.1335 14.3542 12.1293 14.2125 12.0376C14.0708 11.946 14 11.7835 14 11.5501ZM6.2 16.5001C7.09277 16.5001 7.96179 16.6043 8.80707 16.8126C9.65236 17.021 10.4833 17.3335 11.3 17.7501V7.07512C10.55 6.57512 9.73651 6.18762 8.85952 5.91262C7.98256 5.63762 7.09605 5.50012 6.2 5.50012C5.56667 5.50012 4.94583 5.57929 4.3375 5.73762C3.72917 5.89596 3.11667 6.09179 2.5 6.32512V17.1751C3.01667 16.9418 3.60417 16.771 4.2625 16.6626C4.92083 16.5543 5.56667 16.5001 6.2 16.5001ZM12.8 17.7501C13.6333 17.3335 14.45 17.021 15.25 16.8126C16.05 16.6043 16.9 16.5001 17.8 16.5001C18.4333 16.5001 19.0875 16.5501 19.7625 16.6501C20.4375 16.7501 21.0167 16.8835 21.5 17.0501V6.32512C20.9333 6.04179 20.3348 5.83346 19.7044 5.70012C19.0741 5.56679 18.4392 5.50012 17.8 5.50012C16.9 5.50012 16.0292 5.63762 15.1875 5.91262C14.3458 6.18762 13.55 6.57512 12.8 7.07512V17.7501ZM12.05 19.7251C11.9244 19.7251 11.8055 19.7126 11.6933 19.6876C11.5811 19.6626 11.4833 19.6168 11.4 19.5501C10.6167 19.0668 9.78461 18.6918 8.90382 18.4251C8.02302 18.1585 7.12175 18.0251 6.2 18.0251C5.59105 18.0251 4.99298 18.1001 4.4058 18.2501C3.8186 18.4001 3.23333 18.5835 2.65 18.8001C2.265 18.9835 1.89375 18.9585 1.53625 18.7251C1.17875 18.4918 1 18.1585 1 17.7251V6.15012C1 5.90012 1.05833 5.67096 1.175 5.46262C1.29167 5.25429 1.46667 5.09179 1.7 4.97512C2.4 4.64179 3.12829 4.39596 3.88487 4.23762C4.64144 4.07929 5.41315 4.00012 6.2 4.00012C7.25 4.00012 8.27083 4.14179 9.2625 4.42512C10.2542 4.70846 11.1833 5.14179 12.05 5.72512C12.9 5.14179 13.8125 4.70846 14.7875 4.42512C15.7625 4.14179 16.7667 4.00012 17.8 4.00012C18.5811 4.00012 19.3472 4.07929 20.0983 4.23762C20.8494 4.39596 21.575 4.64179 22.275 4.97512C22.5083 5.09179 22.6875 5.25429 22.8125 5.46262C22.9375 5.67096 23 5.90012 23 6.15012V17.7251C23 18.19 22.8125 18.5437 22.4375 18.7863C22.0625 19.0288 21.6917 19.0335 21.325 18.8001C20.7583 18.5668 20.1814 18.3793 19.5942 18.2376C19.007 18.096 18.4089 18.0251 17.8 18.0251C16.8954 18.0251 16.0109 18.1585 15.1466 18.4251C14.2822 18.6918 13.4667 19.0668 12.7 19.5501C12.6167 19.6168 12.5189 19.6626 12.4067 19.6876C12.2945 19.7126 12.1756 19.7251 12.05 19.7251Z" fill="#FFBB22"/>
</svg>
