<svg width="25" height="24" viewBox="0 0 25 24" fill="none" xmlns="http://www.w3.org/2000/svg">
<path d="M8.58207 23.8268C8.96848 23.6642 9.23913 23.2884 9.23913 22.8511V19.9814C9.23913 19.8767 9.24783 19.7678 9.26141 19.6573C9.2538 19.6594 9.24674 19.661 9.23913 19.6626C9.23913 19.6626 7.6087 19.6626 7.28261 19.6626C6.46739 19.6626 5.76087 19.3437 5.43478 18.706C5.05435 18.0152 4.8913 16.846 3.91304 16.2083C3.75 16.102 3.8587 15.9426 4.18478 15.9426C4.51087 15.9958 5.21739 16.4209 5.65217 17.0055C6.1413 17.59 6.63043 18.0683 7.5 18.0683C8.85163 18.0683 9.57609 18.0019 10.012 17.7734C10.5196 17.0352 11.2223 16.474 11.9565 16.474V16.4608C8.87609 16.364 6.90815 15.3628 5.99185 13.8169C4 13.8393 2.26576 14.0322 1.27609 14.1927C1.24457 14.0189 1.21739 13.844 1.19402 13.6681C2.17065 13.5108 3.82609 13.3243 5.72935 13.2887C5.66848 13.142 5.61576 12.9916 5.5712 12.8375C3.66304 12.7429 2.0163 12.8168 1.12174 12.8891C1.11087 12.7126 1.0962 12.5367 1.09402 12.3582C1.99022 12.2864 3.59239 12.2147 5.45163 12.2992C5.4087 12.0335 5.38098 11.7619 5.38098 11.4792C5.38098 10.5758 5.70707 9.61925 6.30489 8.82211C6.03315 7.9187 5.65272 6.00558 6.41359 5.31474C7.88098 5.31474 8.91359 6.00558 9.40272 6.43072C10.3261 6.0582 11.3587 5.84563 12.5 5.84563C13.6413 5.84563 14.6739 6.0582 15.5435 6.43019C16.0326 6.00505 17.0652 5.31421 18.5326 5.31421C19.3478 6.0582 18.913 7.97131 18.6413 8.82158C19.2391 9.61871 19.5652 10.5221 19.5109 11.4787C19.5109 11.7359 19.4864 11.9841 19.4511 12.2275C21.3527 12.1361 22.9984 12.2094 23.9098 12.2817C23.9087 12.4608 23.8918 12.6356 23.8821 12.8126C22.9739 12.7392 21.287 12.6638 19.3391 12.7653C19.2908 12.9438 19.2321 13.1176 19.1625 13.286C21.0897 13.3105 22.7848 13.4928 23.8082 13.6522C23.7848 13.8286 23.7576 14.0035 23.7261 14.1767C22.687 14.0141 20.9158 13.8238 18.9005 13.8143C17.9957 15.3437 16.0636 16.3412 13.0435 16.4576V16.474C14.4565 16.474 15.7609 18.5466 15.7609 19.9814V22.8511C15.7609 23.2884 16.0315 23.6642 16.4179 23.8268C21.3967 22.2155 25 17.624 25 12.2227C25 5.4832 19.3929 0 12.5 0C5.60707 0 0 5.4832 0 12.2227C0 17.624 3.60326 22.2155 8.58207 23.8268Z" fill="white"/>
</svg>
