<svg width="235" height="38" viewBox="0 0 235 38" fill="none" xmlns="http://www.w3.org/2000/svg">
<path d="M10.216 27.22C10.216 29.212 9.856 30.856 9.136 32.152C8.44 33.448 7.504 34.456 6.328 35.176C5.176 35.92 3.796 36.556 2.188 37.084L0.604 32.908C1.66 32.5 2.452 32.032 2.98 31.504C3.508 30.976 3.856 30.364 4.024 29.668C4.216 28.972 4.312 28.084 4.312 27.004V6.052H10.216V27.22ZM22.9378 11.272C25.8658 11.272 28.1578 12.172 29.8138 13.972C31.4698 15.748 32.2978 18.244 32.2978 21.46C32.2978 23.5 31.9138 25.288 31.1458 26.824C30.4018 28.336 29.3218 29.512 27.9058 30.352C26.5138 31.192 24.8578 31.612 22.9378 31.612C20.0338 31.612 17.7418 30.724 16.0618 28.948C14.4058 27.148 13.5778 24.64 13.5778 21.424C13.5778 19.384 13.9498 17.608 14.6938 16.096C15.4618 14.56 16.5418 13.372 17.9338 12.532C19.3498 11.692 21.0178 11.272 22.9378 11.272ZM22.9378 15.448C21.7858 15.448 20.9218 15.94 20.3458 16.924C19.7698 17.884 19.4818 19.384 19.4818 21.424C19.4818 23.512 19.7578 25.036 20.3098 25.996C20.8858 26.956 21.7618 27.436 22.9378 27.436C24.0898 27.436 24.9538 26.956 25.5298 25.996C26.1058 25.012 26.3938 23.5 26.3938 21.46C26.3938 19.372 26.1058 17.848 25.5298 16.888C24.9778 15.928 24.1138 15.448 22.9378 15.448ZM42.4132 11.272C43.7812 11.272 45.0652 11.476 46.2652 11.884C47.4652 12.292 48.5212 12.868 49.4332 13.612L47.3452 16.816C45.7852 15.832 44.2132 15.34 42.6292 15.34C41.8852 15.34 41.3092 15.472 40.9012 15.736C40.5172 15.976 40.3252 16.324 40.3252 16.78C40.3252 17.14 40.4092 17.44 40.5772 17.68C40.7692 17.896 41.1412 18.124 41.6932 18.364C42.2452 18.604 43.0972 18.892 44.2492 19.228C46.2412 19.804 47.7172 20.56 48.6772 21.496C49.6612 22.408 50.1532 23.68 50.1532 25.312C50.1532 26.608 49.7812 27.736 49.0372 28.696C48.2932 29.632 47.2732 30.352 45.9772 30.856C44.6812 31.36 43.2412 31.612 41.6572 31.612C40.0492 31.612 38.5492 31.36 37.1572 30.856C35.7892 30.352 34.6252 29.656 33.6652 28.768L36.4372 25.672C38.0452 26.92 39.7372 27.544 41.5132 27.544C42.3772 27.544 43.0492 27.388 43.5292 27.076C44.0332 26.764 44.2852 26.32 44.2852 25.744C44.2852 25.288 44.1892 24.928 43.9972 24.664C43.8052 24.4 43.4332 24.16 42.8812 23.944C42.3292 23.704 41.4532 23.416 40.2532 23.08C38.3572 22.528 36.9412 21.76 36.0052 20.776C35.0692 19.792 34.6012 18.568 34.6012 17.104C34.6012 16 34.9132 15.016 35.5372 14.152C36.1852 13.264 37.0972 12.568 38.2732 12.064C39.4732 11.536 40.8532 11.272 42.4132 11.272ZM69.7516 21.064C69.7516 21.856 69.7156 22.54 69.6436 23.116H57.7996C57.9916 24.724 58.4476 25.852 59.1676 26.5C59.8876 27.148 60.8836 27.472 62.1556 27.472C62.9236 27.472 63.6676 27.34 64.3876 27.076C65.1076 26.788 65.8876 26.356 66.7276 25.78L69.0676 28.948C66.8356 30.724 64.3516 31.612 61.6156 31.612C58.5196 31.612 56.1436 30.7 54.4876 28.876C52.8316 27.052 52.0036 24.604 52.0036 21.532C52.0036 19.588 52.3516 17.848 53.0476 16.312C53.7436 14.752 54.7636 13.528 56.1076 12.64C57.4516 11.728 59.0596 11.272 60.9316 11.272C63.6916 11.272 65.8516 12.136 67.4116 13.864C68.9716 15.592 69.7516 17.992 69.7516 21.064ZM64.1716 19.444C64.1236 16.516 63.0916 15.052 61.0756 15.052C60.0916 15.052 59.3236 15.412 58.7716 16.132C58.2436 16.852 57.9196 18.04 57.7996 19.696H64.1716V19.444ZM63.6316 0.939999L65.8636 5.188L57.3676 8.608L55.7836 5.692L63.6316 0.939999ZM109.39 6.052L105.214 31H97.5458L94.4498 11.956L91.1738 31H83.6858L79.5818 6.052H85.4858L87.9698 26.536L91.4258 6.052H97.6178L100.858 26.536L103.774 6.052H109.39ZM128.287 21.064C128.287 21.856 128.251 22.54 128.179 23.116H116.335C116.527 24.724 116.983 25.852 117.703 26.5C118.423 27.148 119.419 27.472 120.691 27.472C121.459 27.472 122.203 27.34 122.923 27.076C123.643 26.788 124.423 26.356 125.263 25.78L127.603 28.948C125.371 30.724 122.887 31.612 120.151 31.612C117.055 31.612 114.679 30.7 113.023 28.876C111.367 27.052 110.539 24.604 110.539 21.532C110.539 19.588 110.887 17.848 111.583 16.312C112.279 14.752 113.299 13.528 114.643 12.64C115.987 11.728 117.595 11.272 119.467 11.272C122.227 11.272 124.387 12.136 125.947 13.864C127.507 15.592 128.287 17.992 128.287 21.064ZM122.707 19.444C122.659 16.516 121.627 15.052 119.611 15.052C118.627 15.052 117.859 15.412 117.307 16.132C116.779 16.852 116.455 18.04 116.335 19.696H122.707V19.444ZM147.653 11.884L141.641 31H134.909L128.753 11.884H134.945L138.329 26.68L141.857 11.884H147.653ZM166.045 21.064C166.045 21.856 166.009 22.54 165.937 23.116H154.093C154.285 24.724 154.741 25.852 155.461 26.5C156.181 27.148 157.177 27.472 158.449 27.472C159.217 27.472 159.961 27.34 160.681 27.076C161.401 26.788 162.181 26.356 163.021 25.78L165.361 28.948C163.129 30.724 160.645 31.612 157.909 31.612C154.813 31.612 152.437 30.7 150.781 28.876C149.125 27.052 148.297 24.604 148.297 21.532C148.297 19.588 148.645 17.848 149.341 16.312C150.037 14.752 151.057 13.528 152.401 12.64C153.745 11.728 155.353 11.272 157.225 11.272C159.985 11.272 162.145 12.136 163.705 13.864C165.265 15.592 166.045 17.992 166.045 21.064ZM160.465 19.444C160.417 16.516 159.385 15.052 157.369 15.052C156.385 15.052 155.617 15.412 155.065 16.132C154.537 16.852 154.213 18.04 154.093 19.696H160.465V19.444ZM179.608 11.344C180.304 11.344 180.94 11.428 181.516 11.596L180.616 17.104C179.896 16.936 179.32 16.852 178.888 16.852C177.76 16.852 176.896 17.248 176.296 18.04C175.72 18.808 175.264 19.972 174.928 21.532V31H169.24V11.884H174.208L174.676 15.592C175.108 14.272 175.756 13.24 176.62 12.496C177.508 11.728 178.504 11.344 179.608 11.344ZM195.677 30.1C194.981 30.58 194.165 30.952 193.229 31.216C192.317 31.48 191.405 31.612 190.493 31.612C186.317 31.588 184.229 29.284 184.229 24.7V15.844H181.529V11.884H184.229V7.744L189.917 7.096V11.884H194.309L193.697 15.844H189.917V24.628C189.917 25.516 190.061 26.152 190.349 26.536C190.637 26.92 191.093 27.112 191.717 27.112C192.365 27.112 193.049 26.908 193.769 26.5L195.677 30.1ZM205.223 11.272C208.151 11.272 210.443 12.172 212.099 13.972C213.755 15.748 214.583 18.244 214.583 21.46C214.583 23.5 214.199 25.288 213.431 26.824C212.687 28.336 211.607 29.512 210.191 30.352C208.799 31.192 207.143 31.612 205.223 31.612C202.319 31.612 200.027 30.724 198.347 28.948C196.691 27.148 195.863 24.64 195.863 21.424C195.863 19.384 196.235 17.608 196.979 16.096C197.747 14.56 198.827 13.372 200.219 12.532C201.635 11.692 203.303 11.272 205.223 11.272ZM205.223 15.448C204.071 15.448 203.207 15.94 202.631 16.924C202.055 17.884 201.767 19.384 201.767 21.424C201.767 23.512 202.043 25.036 202.595 25.996C203.171 26.956 204.047 27.436 205.223 27.436C206.375 27.436 207.239 26.956 207.815 25.996C208.391 25.012 208.679 23.5 208.679 21.46C208.679 19.372 208.391 17.848 207.815 16.888C207.263 15.928 206.399 15.448 205.223 15.448ZM229.162 11.272C230.818 11.272 232.114 11.776 233.05 12.784C233.986 13.792 234.454 15.208 234.454 17.032V31H228.766V18.004C228.766 17.044 228.61 16.384 228.298 16.024C228.01 15.64 227.566 15.448 226.966 15.448C225.814 15.448 224.71 16.276 223.654 17.932V31H217.966V11.884H222.934L223.33 14.152C224.146 13.192 225.022 12.472 225.958 11.992C226.918 11.512 227.986 11.272 229.162 11.272Z" fill="#F7F7F7"/>
</svg>
