<svg width="25" height="24" viewBox="0 0 25 24" fill="none" xmlns="http://www.w3.org/2000/svg">
<path d="M22.0238 0H2.97619C1.33333 0 0 1.27076 0 2.83652V20.9903C0 22.556 1.33333 23.8268 2.97619 23.8268H22.0238C23.6667 23.8268 25 22.556 25 20.9903V2.83652C25 1.27076 23.6667 0 22.0238 0ZM7.7381 9.07687V19.8556H4.16667V9.07687H7.7381ZM4.16667 5.93967C4.16667 5.14545 4.88095 4.53843 5.95238 4.53843C7.02381 4.53843 7.69643 5.14545 7.7381 5.93967C7.7381 6.7339 7.07143 7.37495 5.95238 7.37495C4.88095 7.37495 4.16667 6.7339 4.16667 5.93967ZM20.8333 19.8556H17.2619C17.2619 19.8556 17.2619 14.6024 17.2619 14.1826C17.2619 13.048 16.6667 11.9134 15.1786 11.8907H15.131C13.6905 11.8907 13.0952 13.0593 13.0952 14.1826C13.0952 14.6989 13.0952 19.8556 13.0952 19.8556H9.52381V9.07687H13.0952V10.5292C13.0952 10.5292 14.244 9.07687 16.5536 9.07687C18.9167 9.07687 20.8333 10.6256 20.8333 13.7628V19.8556Z" fill="white"/>
</svg>
